<svg xmlns="http://www.w3.org/2000/svg" width="1280" height="640" stroke="#000" stroke-linecap="round" stroke-linejoin="round" fill="#fff" fill-rule="evenodd"><defs><linearGradient id="A" x1="28%" y1="100%" x2="72%" y2="0%"><stop offset="0%" stop-color="#fac30f"/><stop offset="56%" stop-color="#fa0f79"/><stop offset="100%" stop-color="#6520f8"/></linearGradient><linearGradient id="B" x1="94%" y1="100%" x2="6%" y2="0%"><stop offset="0%" stop-color="#fac30f"/><stop offset="56%" stop-color="#fa0f79"/><stop offset="100%" stop-color="#204cf8"/></linearGradient><path id="C" d="M714.3 485.4h-.8l-1.5-2.2q-1 1.2-2.2 2-1.3.7-3 .7h-.7q-1.3 0-2.5-.5-1.2-.5-2-1.3-1-1-1.4-2-.5-1-.5-2.4v-.2q0-1.3.5-2.5.5-1.2 1.4-2 .8-1 2-1.4 1.2-.5 2.5-.5h5.5v-3.3q0-.8-.3-1.5-.3-.7-.8-1.2-.5-.5-1.2-.8-.7-.3-1.5-.3h-1.5q-.8 0-1.5.3-.7.3-1.2.8-.5.5-.8 1.2-.3.7-.3 1.5v.8l-2.6-.5v-.2q0-1.3.5-2.4.5-1.2 1.4-2 1-1 2-1.4 1.2-.5 2.5-.5h1.5q1.4 0 2.5.5 1.2.5 2 1.4.8.8 1.3 2 .5 1 .5 2.4v15.7zm-2.6-5.8V475h-5.5q-.8 0-1.5.3-.7.3-1.2.8-.5.6-.8 1.2-.3.7-.3 1.5v1q0 .8.3 1.5.3.7.8 1.2.5.5 1.2.8.7.3 1.5.3h1.7q.8 0 1.5-.3.7-.3 1.2-.8.5-.5.8-1.2.3-.7.3-1.5z"/><path id="D" d="M778 485.4h-2.6v-21.6h2.6v21.6zm.2-26.7h-3v-3.5h3v3.5z"/><path id="E" d="M909.2 466.3h-2.6q-.8 0-1.5.3-.7.3-1.2.8-.5.5-.8 1.2-.3.7-.3 1.4v15.4h-2.6v-21.6h1l1.4 2.2q1-1.2 2.2-2 1.4-.7 3-.7h1.5v3z"/><path id="F" d="M1003 485.8h-1.8q-1.3 0-2.5-.5-1.2-.5-2-1.3-1-1-1.5-2-.5-1-.5-2.4v-1l2.6-.4v1.4q0 .8.3 1.5.4.7 1 1.2.6.5 1.3.8.7.3 1.5.3h1.8q.7 0 1.5-.3.7-.2 1.3-.6.5-.5.8-1 .4-.6.4-1.4 0-1-.5-2-.5-.7-1.4-1.2-.8-.5-2-.8-1-.3-2.2-.7-1-.3-2.2-.7-1-.4-2-1-1-.7-1.4-1.7-.5-1-.5-2.6 0-1.3.5-2.4.5-1 1.4-2 1-.7 2-1.2 1.2-.4 2.5-.4h1.6q1.3 0 2.4.5 1.2.5 2 1.4 1 .8 1.4 2 .5 1 .5 2.4v.1l-2.7.4v-.6q0-.8-.3-1.5-.3-.7-.8-1.2-.5-.5-1.2-.8-.7-.3-1.4-.3h-1.6q-.8 0-1.5.3-.6.2-1.2.6-.5.5-.8 1-.3.6-.3 1.4 0 1 .6 1.8.5.7 1.3 1.2.8.5 2 .8 1 .3 2.2.7 1 .3 2.2.8 1 .4 2 1 .8.7 1.4 1.7.5 1 .5 2.6 0 1.3-.6 2.4-.5 1-1.4 2-1 .7-2 1.2-1.2.4-2.5.4z"/><path id="G" d="M1022.8 485.8h-1.7q-1.3 0-2.5-.5-1.2-.5-2-1.3-1-1-1.4-2-.5-1-.5-2.4v-9.8q0-1.3.5-2.4.5-1.2 1.4-2 .8-1 2-1.4 1.2-.5 2.5-.5h1.7q1.4 0 2.5.5 1.2.5 2 1.4.8.8 1.3 2 .5 1 .5 2.4v5h-12v4.8q0 .8.3 1.5.3.7.8 1.2.5.5 1.2.8.7.3 1.5.3h1.7q.8 0 1.5-.3.7-.3 1.2-.8.5-.5.8-1.2.3-.7.3-1.5v-1.4l2.6.4v1q0 1.3-.5 2.4-.5 1.2-1.3 2-1 .8-2 1.3-1 .5-2.5.5zm3.8-13v-3.2q0-.8-.3-1.5-.3-.7-.8-1.2-.5-.5-1.2-.8-.7-.3-1.5-.3h-1.7q-.8 0-1.5.3-.7.3-1.2.8-.5.5-.8 1.2-.3.7-.3 1.5v3.2h9.3z"/><path id="H" d="M712 539h-2.4q-1.3 0-2.3-.4-1-.5-2-1.3-.8-.8-1.3-2-.5-1-.5-2.3v-14h-4v-2.6h4v-5.4l2.7-.4v5.8h5.7v2.6h-5.7v14q0 .6.3 1.2.2.6.7 1 .4.5 1 .7.6.3 1.3.3h2.4v2.5z"/><path id="I" d="M839.4 539.5h-1.8q-1.4 0-2.6-.5-1.2-.5-2-1.4-1-1-1.4-2-.5-1.2-.5-2.6v-10q0-1.4.5-2.6.5-1.2 1.4-2 1-1 2-1.4 1.2-.5 2.6-.5h1.8q1.3 0 2.5.5 1.2.5 2 1.4 1 1 1.5 2 .5 1.2.5 2.6v5.3h-12.3v5q0 .8.3 1.5.3.7.8 1.2.6.5 1.3.8.7.4 1.5.4h1.8q.8 0 1.5-.4.7-.3 1.2-.8.6-.5 1-1.2.3-.7.3-1.5v-1.5l2.7.4v1q0 1.4-.5 2.6-.6 1.2-1.5 2-1 1-2 1.4-1.2.5-2.5.5zm4-13.5v-3.4q0-.8-.3-1.5-.3-.7-1-1.2-.5-.5-1.2-1-.7-.3-1.5-.3h-1.8q-.8 0-1.5.3-.7.4-1.3 1-.5.5-.8 1.2-.3.7-.3 1.5v3.4h9.6z"/><path id="J" d="M977.3 539.5h-1.8q-1.4 0-2.6-.5-1.2-.5-2-1.4-1-1-1.4-2-.5-1.2-.5-2.6v-10q0-1.4.5-2.6.5-1.2 1.4-2 1-1 2-1.4 1.2-.5 2.6-.5h1.8q1.3 0 2.5.5 1.3.5 2 1.4 1 1 1.5 2 .5 1.2.5 2.6v10q0 1.4-.5 2.6-.6 1.2-1.5 2-.8 1-2 1.4-1.2.5-2.5.5zm4-6.4v-10.5q0-.8-.3-1.5-.3-.7-1-1.2-.5-.5-1.2-1-.7-.3-1.5-.3h-1.8q-.8 0-1.5.3-.7.4-1.3 1-.5.5-.8 1.2-.3.7-.3 1.5V533q0 .8.3 1.5.3.7.8 1.2.6.5 1.3.8.7.4 1.5.4h1.8q.8 0 1.5-.4.7-.3 1.2-.8.6-.5 1-1.2.3-.7.3-1.5z"/><path id="K" d="M1024.6 539h-2.7v-16.5q0-.8-.3-1.5-.3-.7-1-1.2-.5-.5-1.2-1-.7-.3-1.5-.3h-1.8q-.8 0-1.5.3-.7.4-1.3 1-.5.5-.8 1.2-.3.7-.3 1.5V539h-2.7v-22.5h1l1.5 2.3q1-1.2 2.3-2 1.4-.7 3-.7h.7q1.3 0 2.5.5 1.3.5 2 1.4 1 1 1.5 2 .5 1.2.5 2.6V539z"/></defs><path d="M254 351.3c-1.5 1-3.3 1.4-5 1a47 47 0 0 1-28-19 46 46 0 0 1-8-32.7c.5-4 4-6.4 8-5.6 1.8.3 3.5 1.5 4.6 3s1.7 3.6 1.4 5.5c-2 15.6 8.6 31 24 34.3 2.8.6 5.2 3 6 5.8a7 7 0 0 1-2.7 7.4zm-4 28c-1.6 1-3.4 1.4-5.3 1a77 77 0 0 1-46.6-31.3 77 77 0 0 1-13.5-54.5c.5-4 4-6.4 8-5.6 1.8.3 3.5 1.5 4.6 3s1.7 3.6 1.4 5.5c-4.3 31.2 17.2 61.8 48 68.6 2.8.6 5.2 3 5.8 5.7.8 3-.2 5.8-2.5 7.4z" class="B C D" stroke="none" fill-rule="nonzero" fill="#4f4f4f"/><path d="M428.7 296l-14-2c-1-.1-1.6-.6-2-1.4L408 282c-.3-.8-.2-1.7.4-2.4l8.4-11c1.3-1.5 1.2-3.7-.2-5.2L410 257a4 4 0 0 0-5.3-.2l-11.3 8c-.7.6-1.6.7-2.4.4l-11-4.4c-.8-.3-1.4-1-1.5-2l-2-13.6a4 4 0 0 0-4-3.5H363a4 4 0 0 0-4 3.5l-2 13.6c-.1.8-.6 1.6-1.5 2l-11 4.4c-.8.3-1.7.2-2.4-.4l-11.3-8c-1.5-1.3-3.8-1.2-5.3.2l-6.7 6.4c-1.4 1.5-1.5 3.7-.2 5.2l8.4 11c.6.7.8 1.6.4 2.4l-4.5 10.6c-.4.8-1 1.3-2 1.4l-14 2a4 4 0 0 0-3.6 3.9v9c0 2 1.6 3.7 3.6 3.8l14 2c1 .1 1.6.6 2 1.4l4.5 10.6c.4.8.2 1.7-.4 2.4l-8.4 11c-1.3 1.5-1.2 3.7.2 5l6.7 6.5c1.5 1.4 3.8 1.5 5.3.2l11.3-8.2c.7-.5 1.6-.6 2.4-.3l11 4.4c1 .3 1.4 1 1.5 2l2 13.6a4 4 0 0 0 4 3.5h9.4c2 0 3.7-1.5 4-3.5l2-13.6c.1-1 .7-1.6 1.5-2l11-4.4c.8-.3 1.7-.2 2.4.3l11.3 8.2a4 4 0 0 0 5.3-.2l6.7-6.5c1.4-1.4 1.5-3.6.2-5l-8.4-11c-.6-.7-.7-1.6-.4-2.4l4.6-10.6c.3-.8 1-1.3 2-1.4l14-2c2-.1 3.6-1.8 3.6-3.8v-9a4 4 0 0 0-3.6-3.9zm-45.4 23.3a22 22 0 0 1-15.4 6.2 22 22 0 0 1-15.5-6.2c-4-4-6.4-9.3-6.4-15s2.3-11 6.4-15a22 22 0 0 1 15.5-6.2 22 22 0 0 1 15.4 6.2c4 4 6.4 9.3 6.4 15s-2.3 11-6.4 15zM311 271.8c1.5-.5 2.3-2 2-3.6l-2.2-10.5c-.2-.7 0-1.4.5-1.8l7-6c.5-.4 1.3-.6 2-.3l10.6 3c1.5.6 3.2-.1 4-1.5l3-6.4c.7-1.4.1-3-1.3-4l-9.2-6c-.6-.3-1-1-1-1.6l.5-9c0-.7.4-1.3 1-1.6l10-5c1.4-.7 2-2.3 1.6-3.7L337 207c-.6-1.4-2.2-2.2-3.7-1.8l-11 2c-.7.2-1.4 0-2-.5L314 200c-.4-.5-.6-1.2-.3-1.8L317 188c.5-1.5-.1-3-1.6-3.8l-6.7-3c-1.4-.6-3.2-.1-4 1.2l-6 9c-.3.6-1 1-1.7 1l-9.3-.4c-.7 0-1.3-.4-1.6-1l-5.2-9.5c-.7-1.5-2.3-2.2-4-1.6l-7 2.4c-1.5.5-2.4 2-2 3.6l2.2 10.5c.2.7 0 1.4-.5 1.8l-7 6c-.6.4-1.3.6-2 .3l-10.6-3c-1.5-.5-3.2.2-4 1.6l-3 6.4c-.7 1.4-.2 3 1.2 4l9.2 6c.6.3 1 1 1 1.6l-.5 9c0 .7-.4 1.3-1 1.5l-9.8 5c-1.5.6-2.2 2.3-1.6 3.7l2.5 6.7c.5 1.5 2.2 2.3 3.7 2l11-2c.7-.2 1.4 0 2 .5l6.2 6.6c.5.5.6 1.2.4 2l-3.2 10c-.6 1.4.1 3 1.6 3.7l6.6 3c1.5.6 3.3.1 4-1.3l6-8.8c.4-.6 1-1 1.7-1l9.3.4c.7 0 1.4.4 1.6 1l5.3 9.5c.6 1.4 2.3 2 3.8 1.6l7-2.4zm-15-29.2c-4.3 1.5-9 1.3-13-.6-4.2-2-7.3-5.2-8.8-9.3-1.6-4.2-1.4-8.7.6-12.7a17 17 0 0 1 9.7-8.5c4.3-1.5 9-1.3 13 .6 4 1.8 7.3 5.2 8.8 9.3a16 16 0 0 1-.6 12.7 17 17 0 0 1-9.7 8.5z" class="B C D" stroke="none" fill-rule="nonzero" fill="#4f4f4f"/><path d="M233.7 518.5c10 0 17-5.3 29-16.2l70-62.2H462c60 0 92.4-33.4 92.4-92.7V192.2c0-59.3-32.3-92.7-92.4-92.7H202c-60 0-92.5 33.2-92.5 92.7v155.2C109.5 407 142 440 202 440h9.6v52.6c0 15.6 8 25.8 22 25.8zm8.2-37v-58.7c0-11-4-15.2-15-15.2h-24.6c-41 0-60.2-21-60.2-60.3v-155c0-39.4 19.2-60 60.2-60H462c40.8 0 60 20.7 60 60v155c0 39.4-19 60.3-60 60.3H331.2c-11 0-17 1.6-24.7 9.5z" fill="url(#A)" class="B C" stroke="none" fill-rule="nonzero"/><g transform="translate(614 296)" fill="url(#B)" class="B" stroke="none"><path d="M60.8 58.7l-20.3 50.6L0 3.4h20.8L37.4 47q1.2 3 2.4 6.4 1 3.4 2.5 8.2 1.5-4.8 2.8-8.2 1.4-3.3 2.6-6.4L66.5 0l19 47q1.2 3 2.6 6.4 1.4 3.4 2.8 8.2 1.5-4.8 2.7-8.2Q95 50 96 47l16.4-43.6h19.8l-40.5 106-20.4-50.5q-1.2-3-2.5-6.4-1.3-3.4-2.7-8.2-1.4 4.8-2.7 8-1.4 3.4-2.6 6.4z"/><path d="M195.8 105.6h-52.5V3.4h52.5V21h-33.5v15.7h26v17h-26v33.4h33.5v18.4z"/><path d="M241.8 105.6h-29.5V3.4h31q9.8 0 15.7 4 5.8 4 8.3 9.4 2.5 5.6 2.5 10.6 0 4.4-1.6 8.3-1.6 4-4.6 7 6.8 4.4 11 11.7 4 7.4 4 16.3 0 8.8-4 16.8-4.2 8-12.4 13.2-8.2 5-20.3 5zm-10.5-53v34.7h8.6q6.5 0 10.5-2.6 4-2.7 5.8-6.7 1.8-4 1.8-8 0-4-1.7-8-1.8-4-5.8-6.8-4-2.7-10.6-2.7h-8.6zm0-34v19.8h8.6q5 0 8.3-2.5 3.2-2.5 3.2-7.3 0-5-3.2-7.5-3-2.5-8-2.5h-9z"/><path d="M313.7 105.6h-19V3.4h30q10.7 0 18.3 4.4 7.6 4.5 11.7 11.8 4 7.3 4 16 0 8-3.3 14.4-3.4 6.5-9.5 10.7l26 44.8h-21.6l-22-38.8h-15v38.8zm0-83.8v28h10.7q5.3 0 8.7-2 3.4-2 5-5.3 1.7-3.2 1.7-6.6 0-6-4.3-10-4.3-4-11-4h-10.7z"/><path d="M400 21.8h-24V3.4h68.5v18.4h-24v83.8H400V21.8z"/><path d="M541 14l-5.6 24q-4-7-11-12-7.2-4.8-16.5-4.8-8.8 0-16 4.5-7.2 4.4-11.3 12-4.2 7.5-4.2 17 0 9.2 4.2 16.8 4 7.6 11.3 12 7.2 4.5 16 4.5 9.2 0 16.4-5 7.2-4.8 11.2-11.8L541 95q-7 6-15.5 9.3-8.6 3.3-18.3 3.3-11 0-20.3-4-9.4-4.2-16.5-11.4-7.2-7.3-11.3-17-4-9.6-4-20.6 0-11 4-20.7 4-9.7 11.3-17 7-7.3 16.5-11.5 9.4-4 20.3-4 9.7 0 18.4 3.3Q534 8 541 14z"/></g><g class="D B" stroke="none" fill="#4f4f4f"><path d="M615.2 242.6l6.4-26.7q4.6 8.2 13 13.6Q643 235 652 235q7.2 0 11.4-4 4-4 4-9.8 0-4.6-2.2-7.7-2-3-5-5-3-2-5.2-3l-14-7q-6-3-11.6-7.3-5.5-4.2-9-10.5Q617 174 617 165q0-10 4.5-17.7 4.6-7.7 13-12 8.3-4.3 19.4-4.3 10.6 0 18.8 3.4 8.2 3.4 13.3 7.3l-6 26q-5.3-7-12.6-11-7.3-4.2-14.5-4.2-6.5 0-10 3.3-3.5 3.3-3.5 8.3 0 3 1.3 5.5 1.4 2.4 4 4.2 2.6 2 6 3.8l14 7q3.6 1.8 7.8 4.5 4.2 2.8 8 7 4 4 6.5 10 2.5 5.8 2.5 14 0 10.4-4.8 18.7-4.7 8.4-13.3 13.2-8.6 5-20.6 5-10.8 0-20.4-4-9.7-4-15.5-9.8zm114-87.3h-29v-21.6h82.3v21.6h-29V254H729v-98.6zm83.5 98.5h-23L842 129.4h.3l52.2 124.4h-23.8l-8.8-21.3h-40.3l-8.8 21.3zm21.8-52.8l-5 12.3H854l-5-12.3q-2.2-5-4-9.6-1.8-4.6-3.4-10.7-1.4 6-3 10.7-1.7 4.6-4 9.6zm109.6 53h-35.5V133.7h37q11.8 0 19 4.6 7 4.6 10 11 3 6.5 3 12.3 0 5.2-2 10-2 4.6-5.6 8 8.2 5.2 13.2 14 5 8.6 5 19 0 10.3-5 19.8-5 9.5-15 15.5-9.8 6-24.3 6zm-12.6-62.5v40.8h10.2q8 0 12.7-3 4.8-3 7-8 2.2-4.7 2.2-9.4 0-4.5-2-9.3-2-4.7-7-8-4.8-3.2-13-3.2h-10.2zm0-40v23.3h10.2q6.2 0 10-3 4-3 4-8.5 0-6-3.8-8.8-3.7-3-9.5-3h-10.8zM1067.4 254h-60V133.7h24.5v98.5h35.5V254zm82 0h-63V133.7h63v20.8h-40.2V173h31v20h-31v39.2h40.2V254z"/><path d="M408 190.6c1.5-1 3.3-1.4 5-1a47 47 0 0 1 28 19 46 46 0 0 1 8 32.7c-.5 4-4 6.4-8 5.6-1.8-.3-3.5-1.5-4.6-3s-1.7-3.6-1.4-5.5c2-15.6-8.6-31-24-34.3-2.8-.6-5.2-3-6-5.8a7 7 0 0 1 2.7-7.4zm4-28c1.6-1 3.4-1.4 5.3-1a77 77 0 0 1 46.6 31.3 77 77 0 0 1 13.5 54.5c-.5 4-4 6.4-8 5.6-1.8-.3-3.5-1.5-4.6-3s-1.7-3.6-1.4-5.5c4.3-31.2-17.2-61.8-48-68.6-2.8-.6-5.2-3-5.8-5.7-.8-3 .2-5.8 2.5-7.4z" class="C" fill-rule="nonzero"/><path d="M626.8 485.4l-2-7H615l-2 7h-2.8l9-30.2h1.5l9 30.2H627zm-7-23.5l-4 14h8.2l-4-14v-1.2 1.2zm30 24h-1q-1.5 0-3-.6-1.4-.5-2.4-1.5-1-1-1.6-2.4-.6-1.4-.6-3V477l2.7-.4v1.6q0 1 .4 2 .4 1 1 1.5.6.7 1.5 1 1 .4 2 .4h.7q1 0 1.8-.4 1-.4 1.6-1 .7-.6 1-1.5.4-1 .4-2V455h2.8v23.2q0 1.5-.6 3-.6 1.3-1.6 2.4-1 1-2.4 1.5-1.4.6-3 .6zm27.2-.4h-.8l-1.5-2.2q-1 1.2-2.2 2-1.3.7-3 .7h-.7q-1.3 0-2.5-.5-1.2-.5-2-1.3-1-1-1.4-2-.5-1-.5-2.4v-.2q0-1.3.5-2.5.5-1.2 1.4-2 .8-1 2-1.4 1.2-.5 2.5-.5h5.5v-3.3q0-.8-.3-1.5-.3-.7-.8-1.2-.5-.5-1.2-.8-.7-.3-1.5-.3H669q-.8 0-1.5.3-.7.3-1.2.8-.5.5-.8 1.2-.3.7-.3 1.5v.8l-2.6-.5h0q0-1.3.5-2.4.5-1.2 1.4-2 1-1 2-1.4 1.2-.5 2.5-.5h1.5q1.4 0 2.5.5 1.2.5 2 1.4.8.8 1.3 2 .5 1 .5 2.4v15.7zm-2.6-5.8V475H669q-.8 0-1.5.3-.7.3-1.2.8-.5.6-.8 1.2-.3.7-.3 1.5v1q0 .8.3 1.5.3.7.8 1.2.5.5 1.2.8.7.3 1.5.3h1.7q.8 0 1.5-.3.7-.3 1.2-.8.5-.5.8-1.2.3-.7.3-1.5zm22.4-15.6l-7.7 21.6h-1.3L680 464h2.6l5.7 16.3.1 1.2.1-1.2L694 464h2.6z"/><use href="#C"/><path d="M737.2 477.5v1q0 1.6-.6 3-.7 1.4-1.7 2.4-1 1-2.5 1.6-1.4.5-3 .5h-2.2q-1.6 0-3-.5-1.4-.6-2.5-1.6-1-1-1.7-2.4-.6-1.3-.6-3v-1.2l2.7-.4v1.6q0 1 .5 2 .4 1 1 1.6.7.6 1.6 1 1 .4 2 .4h2q1 0 2-.4 1-.4 1.6-1 .7-.7 1-1.6.4-1 .4-2v-1q0-1.5-.6-2.6-.6-1-1.6-1.7-1-.7-2.3-1.3-1.3-.5-2.7-1-1.3-.5-2.6-1-1.3-.6-2.3-1.5-1-1-1.7-2.3-.6-1.3-.6-3.2v-.6q0-1.5.6-3 .6-1.3 1.6-2.3 1-1 2.4-1.6 1.4-.6 3-.6h2q1.5 0 3 .6 1.4.6 2.4 1.6 1 1 1.6 2.3.6 1.4.6 3v.8l-2.8.4v-1.2q0-1-.4-2-.3-.8-1-1.5-.7-.7-1.5-1-1-.4-2-.4h-1.7q-1 0-2 .4-1 .3-1.6 1-.7.7-1 1.5-.4 1-.4 2v.6q0 1.4.6 2.4.6 1 1.6 1.7 1 .7 2.3 1.2 1.3.6 2.7 1 1.3.5 2.6 1.2 1.3.6 2.3 1.6 1 1 1.7 2.2.6 1.4.6 3.3zm13 8.3h-1.7q-1.3 0-2.5-.5-1.2-.5-2-1.3-1-1-1.4-2-.5-1-.5-2.4v-9.8q0-1.3.5-2.4.5-1.2 1.4-2 .8-1 2-1.4 1.2-.5 2.5-.5h1.7q1.4 0 2.5.5 1.2.5 2 1.4.8.8 1.3 2 .5 1 .5 2.4v1l-2.6.4v-1.4q0-.8-.3-1.5-.3-.7-.8-1.2-.5-.5-1.2-.8-.7-.3-1.5-.3h-1.7q-.8 0-1.5.3-.7.3-1.2.8-.5.5-.8 1.2-.3.7-.3 1.5v10q0 .8.3 1.5.3.7.8 1.2.5.5 1.2.8.7.3 1.5.3h1.7q.8 0 1.5-.3.7-.3 1.2-.8.5-.5.8-1.2.3-.7.3-1.5v-1.4l2.6.4v1q0 1.3-.5 2.4-.5 1.2-1.3 2-1 .8-2 1.3-1 .5-2.5.5zm20.7-19.5h-2.6q-.8 0-1.5.3-.7.3-1.2.8-.5.5-.8 1.2-.3.7-.3 1.4v15.4H762v-21.6h1l1.4 2.2q1-1.2 2.2-2 1.4-.7 3-.7h1.5v3z"/><use href="#D"/><path d="M792.2 485.8h-.6q-1.5 0-2.7-.6-1.3-.6-2.2-1.6V494H784v-30.2h1l1.4 2.2q1-1.2 2.2-2 1.4-.7 3-.7h.6q1.4 0 2.5.5 1.2.5 2 1.4.8.8 1.3 2 .5 1 .5 2.4v9.8q0 1.3-.5 2.4-.5 1.2-1.3 2-1 .8-2 1.3-1 .5-2.5.5zm3.8-6.2v-10q0-.8-.3-1.5-.3-.7-.8-1.2-.5-.5-1.2-.8-.7-.3-1.5-.3h-1.7q-.8 0-1.5.3-.7.3-1.2.8-.5.5-.8 1.2-.3.7-.3 1.5v10q0 .8.3 1.5.3.7.8 1.2.5.5 1.2.8.7.3 1.5.3h1.7q.8 0 1.5-.3.7-.3 1.2-.8.5-.5.8-1.2.3-.7.3-1.5zm18.2 6h-2.4q-1.2 0-2.3-.5-1-.4-1.8-1.2-.8-.8-1.2-1.8-.5-1-.5-2.2v-13.4h-4V464h4v-5.2l2.6-.4v5.6h5.6v2.5h-5.6V480q0 .7.3 1.2.2.6.6 1 .5.4 1 .7.6.2 1.3.2h2.4v2.5zm18.3-.1H830v-30.2h2.6v30.2z"/><use href="#D" x="64"/><path d="M856.3 485.8h-1.7q-1.3 0-2.5-.5-1.2-.5-2-1.3-1-1-1.4-2-.5-1.2-.5-2.5v-24.3h2.6v10.4q1-1 2.2-1.6 1.2-.6 2.7-.6h.6q1.4 0 2.5.5 1.2.5 2 1.4.8.8 1.3 2 .5 1 .5 2.5v9.7q0 1.3-.5 2.5-.5 1-1.3 2-1 .8-2 1.3-1 .5-2.5.5zm3.8-6.2v-10q0-.8-.3-1.5-.3-.6-.8-1-.5-.6-1.2-.8-.7-.3-1.5-.3h-1.7q-.8 0-1.5.3-.7.2-1.2.8-.5.5-.8 1-.3.7-.3 1.5v10q0 .8.3 1.5.3.7.8 1.2.5.5 1.2.8.7.3 1.5.3h1.7q.8 0 1.5-.3.7-.3 1.2-.8.5-.5.8-1.2.3-.7.3-1.5zm17-13.3h-2.6q-.8 0-1.5.3-.7.3-1.2.8-.5.5-.8 1.2-.3.7-.3 1.4v15.4H868v-21.6h1l1.4 2.2q1-1.2 2.2-2 1.4-.7 3-.7h1.5v3zm18 19h-.8l-1.5-2.2q-1 1.2-2.2 2-1.3.7-3 .7h-.7q-1.3 0-2.5-.5-1.2-.5-2-1.3-1-1-1.4-2-.5-1-.5-2.4v-.2q0-1.3.5-2.5.5-1.2 1.4-2 .8-1 2-1.4 1.2-.5 2.5-.5h5.5v-3.3q0-.8-.3-1.5-.3-.7-.8-1.2-.5-.5-1.2-.8-.7-.3-1.5-.3H887q-.8 0-1.5.3-.7.3-1.2.8-.5.5-.8 1.2-.3.7-.3 1.5v.8l-2.6-.5h0q0-1.3.5-2.4.5-1.2 1.4-2 1-1 2-1.4 1.2-.5 2.5-.5h1.5q1.4 0 2.5.5 1.2.5 2 1.4.8.8 1.3 2 .5 1 .5 2.4v15.7zm-2.6-5.8V475H887q-.8 0-1.5.3-.7.3-1.2.8-.5.6-.8 1.2-.3.7-.3 1.5v1q0 .8.3 1.5.3.7.8 1.2.5.5 1.2.8.7.3 1.5.3h1.7q.8 0 1.5-.3.7-.3 1.2-.8.5-.5.8-1.2.3-.7.3-1.5z"/><use href="#E"/><path d="M927.2 464l-11 30.2h-2.5l4-10.5-7-19.7h2.6l5.7 16.3v1.2-1.2l5.6-16.3h2.6zm22.6-6.3h-2.4q-.7 0-1.2.2-.6.3-1 .7-.5.4-.7 1-.3.5-.3 1.2v3h5v2.5h-5v19h-2.6v-19h-4v-2.5h4v-3q0-1.2.5-2.2.4-1 1.2-1.8.8-.8 1.8-1.3 1-.4 2.3-.4h2.4v2.5zm10.7 28h-1.7q-1.3 0-2.5-.5-1.2-.5-2-1.3-1-1-1.4-2-.5-1-.5-2.4v-9.8q0-1.3.5-2.4.5-1.2 1.4-2 .8-1 2-1.4 1.2-.5 2.5-.5h1.7q1.4 0 2.5.5 1.2.5 2 1.4.8.8 1.3 2 .5 1 .5 2.4v9.8q0 1.3-.5 2.4-.5 1.2-1.3 2-1 .8-2 1.3-1 .5-2.5.5zm3.8-6.2v-10q0-.8-.3-1.5-.3-.7-.8-1.2-.5-.5-1.2-.8-.7-.3-1.5-.3h-1.7q-.8 0-1.5.3-.7.3-1.2.8-.5.5-.8 1.2-.3.7-.3 1.5v10q0 .8.3 1.5.3.7.8 1.2.5.5 1.2.8.7.3 1.5.3h1.7q.8 0 1.5-.3.7-.3 1.2-.8.5-.5.8-1.2.3-.7.3-1.5z"/><use href="#E" x="72"/><use href="#F"/><use href="#G"/><use href="#C" x="334.7"/><path d="M1079.8 485.4h-2.6v-15.8q0-.8-.3-1.5-.3-.7-.8-1.2-.5-.5-1.2-.8-.7-.3-1.5-.3h-1.3q-.8 0-1.5.3-.7.3-1.2.8-.5.5-.8 1.2-.3.7-.3 1.5v15.8h-2.6v-15.8q0-.8-.3-1.5-.3-.7-.8-1.2-.5-.5-1.2-.8-.7-.3-1.5-.3h-1.3q-.8 0-1.5.3-.7.3-1.2.8-.5.5-.8 1.2-.3.7-.3 1.5v15.8h-2.6v-21.6h1l1.4 2.2q1-1.2 2.2-2 1.4-.7 3-.7h.2q1.8 0 3.3 1 1.5 1 2.3 2.4.4-.7 1-1.3.6-.7 1.3-1 .8-.4 1.6-.7 1-.2 1.8-.2h.2q1.3 0 2.5.5 1.2.5 2 1.4 1 .8 1.4 2 .5 1 .5 2.4v15.7zm8.7 0h-2.6v-30.2h2.6v30.2z"/><use href="#G" x="79.9"/><use href="#F" x="119.8"/><use href="#F" x="139.8"/><path d="M624.5 539h-1l-1.5-2.3q-1 1.2-2.3 2-1.4.7-3 .7h-.7q-1.4 0-2.6-.5-1.2-.5-2-1.4-1-1-1.4-2-.5-1.2-.5-2.6v-.2q0-1.4.5-2.6.5-1.2 1.4-2 1-1 2-1.4 1.2-.5 2.6-.5h5.7v-3.5q0-.8-.3-1.5-.3-.7-1-1.2-.5-.5-1.2-1-.7-.3-1.5-.3H616q-.8 0-1.5.3-.7.4-1.3 1-.5.5-.8 1.2-.3.7-.3 1.5v.8l-2.7-.4h0q0-1.4.5-2.6.5-1.2 1.4-2 1-1 2-1.4 1.3-.5 2.6-.5h1.6q1.3 0 2.5.5 1.3.5 2 1.4 1 1 1.5 2 .5 1.2.5 2.6v16zm-2.7-6v-5H616q-.8 0-1.5.3-.7.3-1.3.8-.5.6-.8 1.3-.3.7-.3 1.5v1q0 .8.3 1.5.3.7.8 1.2.6.5 1.3.8.7.4 1.5.4h1.8q.8 0 1.5-.4.7-.3 1.2-.8.6-.5 1-1.2.3-.7.3-1.5zm23.2 6h-2.7v-16.5q0-.8-.3-1.5-.3-.7-1-1.2-.5-.5-1.2-1-.7-.3-1.5-.3h-1.8q-.8 0-1.5.3-.7.4-1.3 1-.5.5-.8 1.2-.3.7-.3 1.5V539H630v-22.5h1l1.5 2.3q1-1.2 2.3-2 1.4-.7 3-.7h.7q1.3 0 2.5.5 1.3.5 2 1.4 1 1 1.5 2 .5 1.2.5 2.6V539zm20.3 0h-1l-1.5-2.3q-1 1.3-2.3 2-1.4.7-3 .7h-.7q-1.4 0-2.6-.5-1.2-.5-2-1.4-1-1-1.4-2-.5-1.2-.5-2.6v-10q0-1.3.5-2.5.5-1.2 1.4-2 1-1 2-1.4 1.2-.6 2.6-.6h.7q1.5 0 2.8.7 1.3.6 2.2 1.7v-11h2.7V539zm-2.7-6v-10.4q0-.8-.3-1.5-.3-.8-1-1.3-.5-.5-1.2-.8-.7-.3-1.5-.3H657q-.8 0-1.5.3-.7.3-1.3.8-.5.5-.8 1.3-.3.7-.3 1.5V533q0 .8.3 1.5.3.7.8 1.3.6.5 1.3.8.7.3 1.5.3h1.8q.8 0 1.5-.3.7-.3 1.2-.8.6-.6 1-1.3.3-.7.3-1.5zm27 6.5h-1.8q-1.4 0-2.6-.5-1.2-.5-2.2-1.4-1-1-1.4-2-.6-1.2-.6-2.6v-1l2.7-.4v1.5q0 .8.3 1.5.4.7 1 1.2.6.5 1.4.8.7.4 1.5.4h1.8q.8 0 1.6-.3.7-.2 1.3-.7.6-.4 1-1 .3-.6.3-1.4 0-1.2-.5-2-.5-.7-1.4-1.3-.8-.5-2-.8-1.2-.3-2.3-.7-1.2-.3-2.3-.8-1-.4-2-1-1-.7-1.4-1.8-.6-1-.6-2.7 0-1.3.6-2.5.5-1 1.4-2 1-.8 2-1.3 1.2-.4 2.5-.4h1.6q1.4 0 2.6.5 1.2.5 2 1.4 1 1 1.4 2 .5 1.2.5 2.6v.1l-2.7.4v-.7q0-.8-.3-1.5-.3-.7-.8-1.2-.6-.5-1.3-1-.7-.3-1.5-.3H688q-.8 0-1.5.3-.7.2-1.2.7-.6.4-1 1-.3.6-.3 1.4 0 1.2.6 2 .5.7 1.3 1.2 1 .5 2 1 1 .3 2.3.7 1 .3 2.2.8 1 .5 2 1.2 1 .7 1.4 1.8.5 1 .5 2.7 0 1.3-.5 2.4-.6 1.2-1.5 2-1 .8-2.2 1.2-1.2.5-2.6.5z"/><use href="#H"/><path d="M732 539h-1l-1.5-2.3q-1 1.2-2.3 2-1.4.7-3 .7h-.7q-1.4 0-2.6-.5-1.2-.5-2-1.4-1-1-1.4-2-.5-1.2-.5-2.6v-.2q0-1.4.5-2.6.5-1.2 1.4-2 1-1 2-1.4 1.2-.5 2.6-.5h5.7v-3.5q0-.8-.3-1.5-.3-.7-1-1.2-.5-.5-1.2-1-.7-.3-1.5-.3H724q-.8 0-1.5.3-.7.4-1.3 1-.5.5-.8 1.2-.3.7-.3 1.5v.8l-2.7-.4h0q0-1.4.5-2.6.5-1.2 1.4-2 1-1 2-1.4 1.3-.5 2.6-.5h1.6q1.3 0 2.5.5 1.3.5 2 1.4 1 1 1.5 2 .5 1.2.5 2.6v16zm-2.7-6v-5h-5.7q-.8 0-1.5.3-.7.3-1.3.8-.5.6-.8 1.3-.3.7-.3 1.5v1q0 .8.3 1.5.3.7.8 1.2.6.5 1.3.8.7.4 1.5.4h1.8q.8 0 1.5-.4.7-.3 1.2-.8.6-.5 1-1.2.3-.7.3-1.5zm16.5 6.5H744q-1.4 0-2.6-.5-1.2-.5-2-1.4-1-1-1.4-2-.5-1.2-.5-2.6v-25.2h2.7v11q1-1 2.2-1.7 1.3-.7 2.8-.7h.7q1.3 0 2.5.6 1.3.5 2 1.4 1 1 1.5 2 .5 1.2.5 2.5v10q0 1.4-.5 2.6-.6 1.2-1.5 2-.8 1-2 1.4-1.2.5-2.5.5zm4-6.4v-10.4q0-.8-.3-1.5-.3-.8-1-1.3-.5-.5-1.2-.8-.7-.3-1.5-.3H744q-.8 0-1.5.3-.7.3-1.3.8-.5.5-.8 1.3-.3.7-.3 1.5V533q0 .8.3 1.5.3.7.8 1.3.6.5 1.3.8.7.3 1.5.3h1.8q.8 0 1.5-.3.7-.3 1.2-.8.6-.6 1-1.3.3-.7.3-1.5zm11.2 6h-2.7v-31.4h2.7V539zm14.6.5h-1.8q-1.4 0-2.6-.5-1.2-.5-2-1.4-1-1-1.4-2-.5-1.2-.5-2.6v-10q0-1.4.5-2.6.5-1.2 1.4-2 1-1 2-1.4 1.2-.5 2.6-.5h1.8q1.3 0 2.5.5 1.3.5 2 1.4 1 1 1.5 2 .5 1.2.5 2.6v5.3h-12v5q0 .8.3 1.5.3.7.8 1.2.6.5 1.3.8.7.4 1.5.4h1.8q.8 0 1.5-.4.7-.3 1.2-.8.6-.5 1-1.2.3-.7.3-1.5v-1.5l2.7.4v1q0 1.4-.5 2.6-.6 1.2-1.5 2-.8 1-2 1.4-1.2.5-2.5.5zm4-13.5v-3.4q0-.8-.3-1.5-.3-.7-1-1.2-.5-.5-1.2-1-.7-.3-1.5-.3h-1.8q-.8 0-1.5.3-.7.4-1.3 1-.5.5-.8 1.2-.3.7-.3 1.5v3.4h9.6zm48.4-18.3l-8.3 31.4h-1.5l-6-23.6-.1-1.3v1.3l-6 23.6h-1.5l-8.3-31.4h2.8l6.2 24 .1 1 .1-1 6-24h1.6l6 24v1-1l6-24h3z"/><use href="#I"/><path d="M859.8 539.5H858q-1.4 0-2.6-.5-1.2-.5-2-1.4-1-1-1.4-2-.5-1.2-.5-2.6v-25.2h2.7v11q1-1 2.2-1.7 1.3-.7 2.8-.7h.7q1.3 0 2.5.6 1.2.5 2 1.4 1 1 1.5 2 .5 1.2.5 2.5v10q0 1.4-.5 2.6-.6 1.2-1.5 2-1 1-2 1.4-1.2.5-2.5.5zm4-6.4v-10.4q0-.8-.3-1.5-.3-.8-1-1.3-.5-.5-1.2-.8-.7-.3-1.5-.3H858q-.8 0-1.5.3-.7.3-1.3.8-.5.5-.8 1.3-.3.7-.3 1.5V533q0 .8.3 1.5.3.7.8 1.3.6.5 1.3.8.7.3 1.5.3h1.8q.8 0 1.5-.3.7-.3 1.2-.8.6-.6 1-1.3.3-.7.3-1.5zm27 6h-3.3l-8.5-13.4h-4V539H872v-31.4h10q1.6 0 3 .6 1.4.6 2.4 1.7 1 1 1.7 2.4.6 1.4.6 3v2.6q0 1.6-.6 3-.6 1.4-1.7 2.4-1 1-2.4 1.7-1.4.6-3 .6l8.5 13.4zm-3.7-21v-2.6q0-1-.4-2-.3-1-1-1.6-.7-.7-1.6-1-1-.4-2-.4h-7V523h7q1 0 2-.4 1-.4 1.6-1 .7-.7 1-1.6.4-1 .4-2zm24.2-7.6h-7.5V539H901v-28.7h-7.5v-2.7h17.8v2.7zm14 29H923q-1.6 0-3-.6-1.4-.6-2.4-1.7-1-1-1.7-2.4-.6-1.4-.6-3v-17q0-1.6.6-3 .6-1.4 1.7-2.4 1-1 2.4-1.7 1.4-.6 3-.6h2.3q1.6 0 3 .6 1.4.6 2.4 1.7 1 1 1.7 2.4.6 1.4.6 3v1.3l-3 .4V515q0-1-.4-2-.3-1-1-1.5-.7-.7-1.6-1-1-.4-2-.4h-2q-1 0-2 .4-1 .4-1.6 1-.7.6-1 1.5-.4 1-.4 2v17q0 1 .4 2 .4 1 1 1.6.7.7 1.6 1 1 .4 2 .4h2q1 0 2-.4 1-.4 1.6-1 .7-.7 1-1.6.4-1 .4-2v-2l3 .4v1.3q0 1.6-.6 3-.6 1.4-1.7 2.4-1 1-2.4 1.7-1.4.6-3 .6zm31.8 0h-2q-1.4 0-2.6-.5-1.2-.5-2-1.4-1-1-1.4-2-.5-1.2-.5-2.6v-10q0-1.4.5-2.6.5-1.2 1.4-2 1-1 2-1.4 1.2-.5 2.6-.5h1.8q1.3 0 2.5.5 1.3.5 2 1.4 1 1 1.5 2 .5 1.2.5 2.6v1l-2.7.4V523q0-.8-.3-1.5-.3-.7-1-1.2-.5-.5-1.2-1-.7-.3-1.5-.3H955q-.8 0-1.5.3-.7.4-1.3 1-.5.5-.8 1.2-.3.7-.3 1.5v10q0 .8.3 1.5.3.7.8 1.2.6.5 1.3.8.7.4 1.5.4h1.8q.8 0 1.5-.4.7-.3 1.2-.8.6-.5 1-1.2.3-.7.3-1.5v-1.5l2.7.4v1q0 1.4-.5 2.6-.6 1.2-1.5 2-.8 1-2 1.4-1.2.5-2.5.5z"/><use href="#J"/><path d="M1004.3 539h-2.7v-16.5q0-.8-.3-1.5-.3-.7-1-1.2-.5-.5-1.2-1-.7-.3-1.5-.3H996q-.8 0-1.5.3-.7.4-1.3 1-.5.5-.8 1.2-.3.7-.3 1.5V539h-2.7v-22.5h1l1.5 2.3q1-1.2 2.3-2 1.4-.7 3-.7h.7q1.3 0 2.5.5 1.3.5 2 1.4 1 1 1.5 2 .5 1.2.5 2.6V539z"/><use href="#K"/><use href="#I" x="199"/><path d="M1058.7 539.5h-1.8q-1.4 0-2.6-.5-1.2-.5-2-1.4-1-1-1.4-2-.5-1.2-.5-2.6v-10q0-1.4.5-2.6.5-1.2 1.4-2 1-1 2-1.4 1.2-.5 2.6-.5h1.8q1.3 0 2.5.5 1.2.5 2 1.4 1 1 1.5 2 .5 1.2.5 2.6v1l-2.7.4v-1.5q0-.8-.3-1.5-.3-.7-1-1.2-.5-.5-1.2-1-.7-.3-1.5-.3h-1.8q-.8 0-1.5.3-.7.4-1.3 1-.5.5-.8 1.2-.3.7-.3 1.5V533q0 .8.3 1.5.3.7.8 1.2.6.5 1.3.8.7.4 1.5.4h1.8q.8 0 1.5-.4.7-.3 1.2-.8.6-.5 1-1.2.3-.7.3-1.5v-1.5l2.7.4v1q0 1.4-.5 2.6-.6 1.2-1.5 2-1 1-2 1.4-1.2.5-2.5.5z"/><use href="#H" x="369.3"/><path d="M1089.8 539h-2.7v-22.4h2.7V539zm.2-27.8h-3v-3.6h3v3.6z"/><use href="#J" x="127.2"/><use href="#K" x="106.9"/><path d="M1145.5 539.5h-1.8q-1.3 0-2.6-.5-1.2-.5-2.2-1.4-1-1-1.4-2-.6-1.2-.6-2.6v-1l2.7-.4v1.5q0 .8.3 1.5.4.7 1 1.2.6.5 1.4.8.7.4 1.5.4h1.8q.8 0 1.6-.3.7-.2 1.3-.7.6-.4 1-1 .3-.6.3-1.4 0-1.2-.5-2-.5-.7-1.4-1.3-.8-.5-2-.8-1-.3-2.3-.7-1.2-.3-2.3-.8-1-.4-2-1-1-.7-1.4-1.8-.6-1-.6-2.7 0-1.3.6-2.5.5-1 1.4-2 1-.8 2-1.3 1.2-.4 2.5-.4h1.6q1.4 0 2.6.5 1.2.5 2 1.4 1 1 1.4 2 .5 1.2.5 2.6v.1l-2.7.4v-.7q0-.8-.3-1.5-.3-.7-.8-1.2-.6-.5-1.3-1-.7-.3-1.5-.3h-1.6q-.8 0-1.5.3-.7.2-1.2.7-.6.4-1 1-.3.6-.3 1.4 0 1.2.6 2 .5.7 1.3 1.2 1 .5 2 1 1 .3 2.3.7 1 .3 2.2.8 1 .5 2 1.2 1 .7 1.4 1.8.5 1 .5 2.7 0 1.3-.5 2.4-.6 1.2-1.5 2-1 .8-2.2 1.2-1.2.5-2.6.5z"/></g><path d="M109.5 105.5c-3.6 4.4-6.2 10.6-8 16.6-1.8-6-4.4-12.2-8-16.6a38 38 0 0 0-13.9-9.7 38 38 0 0 0 13.9-9.7c3.6-4.3 6.2-10.6 8-16.6 2 6 4.5 12.3 8 16.6a38 38 0 0 0 13.9 9.7 38 38 0 0 0-13.9 9.7z" fill="#eb00b0" class="B" stroke="none"/><path d="M-106.5-388.2zm-205.7 165.4h0zm165.4 205.6h0zM58.8-182.5h0z" class="B" stroke="none"/><path d="M89.2 221.8c-2.4 3.6-4 8.8-5.3 13.7-1.2-5-3-10-5.3-13.7s-5.8-6.2-9-8c3.3-1.8 6.7-4.4 9-8s4-8.8 5.3-13.7c1.2 5 3 10 5.3 13.7s6 6.2 9.2 8c-3.3 1.8-6.8 4.4-9.2 8z" fill="#7f00ff" class="B" stroke="none"/><path d="M200.7 72.5c-2.4 2.8-4 6.8-5.2 10.6-1.2-3.8-2.8-7.8-5-10.6-2.4-2.8-5.7-4.8-9-6.2a26 26 0 0 0 9-6.2c2.3-2.8 4-6.8 5-10.6 1.2 3.8 2.8 7.8 5.2 10.6 2.3 2.8 5.6 4.8 8.8 6.2-3.2 1.4-6.5 3.4-8.8 6.2zM558.2 103c-3.4 4-5.8 10-7.5 15.5a44 44 0 0 0-7.5-15.5 35 35 0 0 0-13-9 37 37 0 0 0 13-9c3.4-4 5.8-10 7.5-15.5a44 44 0 0 0 7.5 15.5c3.4 4 8.3 7 13 9a37 37 0 0 0-13 9z" fill="#ffab66" class="B" stroke="none"/></svg>